<svg width="32" height="32" viewBox="0 0 32 32" fill="none" xmlns="http://www.w3.org/2000/svg">
<path d="M16 2.41113C7.17749 2.41113 0 7.68486 0 14.1675V16.8392C0 21.0909 3.10449 24.986 8.11572 27.0657C8.5061 28.5807 9.85815 29.6482 11.4194 29.6739C12.981 29.6995 14.3674 28.6773 14.8071 27.1758C15.2468 25.6743 14.6316 24.0635 13.304 23.2399C11.9761 22.416 10.2627 22.5821 9.11743 23.6457C4.7439 22.0175 1.79834 18.9965 1.18945 15.5019C2.12158 10.165 8.46509 6.15184 16 6.15184C23.5349 6.15184 29.8767 10.1633 30.8113 15.5034C30.2031 18.9972 27.2554 22.0168 22.8826 23.6457C21.7383 22.5846 20.0276 22.4197 18.7021 23.2426C17.3767 24.0657 16.7627 25.6741 17.2019 27.1731C17.6409 28.6724 19.0249 29.6932 20.584 29.6682C22.1431 29.643 23.4934 28.5782 23.8843 27.0657C28.8955 24.986 32 21.0909 32 16.8392V14.1675C32 7.68486 24.8225 2.41113 16 2.41113ZM13.8667 26.191C13.8667 27.519 12.7922 28.5956 11.4666 28.5956C10.1411 28.5956 9.06665 27.519 9.06665 26.191C9.06665 24.8629 10.1411 23.7861 11.4666 23.7861C12.7915 23.7876 13.8652 24.8634 13.8667 26.191ZM8.42676 24.5237C8.20044 24.9363 8.06104 25.3908 8.0166 25.8595C4.53711 24.2832 2.14551 21.7609 1.35474 18.9148C2.76953 21.29 5.23193 23.2678 8.42676 24.5237ZM16 5.0831C9.50879 5.0831 3.83521 7.94195 1.34717 12.11C2.69116 7.19807 8.74658 3.47987 16 3.47987C23.2534 3.47987 29.311 7.19978 30.6533 12.1127C28.1653 7.94195 22.4917 5.0831 16 5.0831ZM20.5334 28.5956C19.2078 28.5956 18.1333 27.519 18.1333 26.191C18.1333 24.8629 19.2078 23.7861 20.5334 23.7861C21.8589 23.7861 22.9333 24.8629 22.9333 26.191C22.9319 27.5183 21.8582 28.5941 20.5334 28.5956ZM23.9834 25.8617C23.939 25.393 23.7996 24.9385 23.5732 24.5259C26.7681 23.27 29.23 21.2927 30.6448 18.9192C29.8538 21.7619 27.4619 24.2832 23.9834 25.8617Z" fill="black"/>
<path d="M11.4666 27.5266C11.7612 27.5266 12 27.2874 12 26.9924C12 26.6971 11.7612 26.4579 11.4666 26.4579C11.3193 26.4579 11.2 26.3382 11.2 26.1907C11.2 25.8955 10.9612 25.6562 10.6667 25.6562C10.3721 25.6562 10.1333 25.8955 10.1333 26.1907C10.1333 26.9285 10.7302 27.5266 11.4666 27.5266Z" fill="black"/>
<path d="M20.5337 26.4579C20.3862 26.4579 20.2668 26.3382 20.2668 26.1907C20.2668 25.8955 20.0281 25.6562 19.7336 25.6562C19.439 25.6562 19.2002 25.8955 19.2002 26.1907C19.2002 26.9285 19.7971 27.5266 20.5337 27.5266C20.8281 27.5266 21.0669 27.2874 21.0669 26.9924C21.0669 26.6971 20.8281 26.4579 20.5337 26.4579Z" fill="black"/>
</svg>
