<svg width="32" height="32" viewBox="0 0 32 32" fill="none" xmlns="http://www.w3.org/2000/svg">
<g clip-path="url(#clip0_48_9592)">
<path d="M0.978104 0.124542C1.58113 -0.125214 2.24275 0.00637779 2.70466 0.468048L31.532 29.2954C31.9937 29.7571 32.1253 30.4187 31.8753 31.022C31.6255 31.6253 31.0647 32 30.4117 32H24.783C24.5242 32 24.3145 31.7901 24.3145 31.5313C24.3145 31.2725 24.5242 31.0625 24.783 31.0625H30.4117C30.8128 31.0625 30.9705 30.7569 31.0093 30.6631C31.0481 30.5696 31.1526 30.242 30.8692 29.9583L29.6878 28.7769C29.6878 28.7769 28.6224 29.8423 28.6221 29.8426C28.4456 30.0191 28.1424 30.0259 27.9593 29.8426C27.7762 29.6595 27.7762 29.3628 27.9593 29.1797L29.0249 28.114L27.9676 27.0569C27.9676 27.0569 26.9041 28.1204 26.9021 28.1223C26.7303 28.2942 26.4175 28.3008 26.2393 28.1223C26.0562 27.9395 26.0562 27.6426 26.2393 27.4595L27.3047 26.3941L26.2476 25.3367C26.2476 25.3367 25.1844 26.3999 25.1819 26.4024C25.0088 26.5755 24.699 26.5823 24.5191 26.4024C24.336 26.2193 24.336 25.9224 24.5191 25.7395L25.5848 24.6739L24.5274 23.6167C24.5274 23.6167 23.4632 24.6807 23.462 24.6822C23.2859 24.8579 22.9817 24.8648 22.7991 24.6822C22.616 24.4991 22.616 24.2024 22.7991 24.0193L23.8646 22.9539L22.8074 21.8965C22.8074 21.8965 21.7422 22.9617 21.7418 22.9622C21.5608 23.1431 21.2596 23.1429 21.0789 22.9622C20.8958 22.7791 20.8958 22.4822 21.0789 22.2993L22.1446 21.2337L21.0872 20.1765L20.0218 21.242C19.8409 21.4229 19.5396 21.4229 19.3589 21.242C19.1758 21.0589 19.1758 20.7622 19.3589 20.5791L20.4244 19.5137L19.3672 18.4563C19.3672 18.4563 18.3021 19.5215 18.3016 19.522C18.1253 19.6983 17.8218 19.7049 17.6387 19.522C17.4556 19.3389 17.4556 19.042 17.6387 18.8592L18.7044 17.7935L17.647 16.7364C17.647 16.7364 16.5816 17.8018 16.5814 17.8018C16.4051 17.9783 16.1019 17.9851 15.9185 17.8018C15.7357 17.6189 15.7357 17.3221 15.9185 17.1389L16.9842 16.0735L15.9271 15.0161C15.9271 15.0161 14.8626 16.0806 14.8614 16.0818C14.6854 16.2578 14.3817 16.2649 14.1985 16.0818C14.0154 15.8987 14.0154 15.6018 14.1985 15.419L15.2642 14.3533L14.2069 13.2962C14.2069 13.2962 13.1424 14.3606 13.1414 14.3616C12.9603 14.5428 12.6592 14.5425 12.4786 14.3616C12.2955 14.1785 12.2955 13.8819 12.4786 13.6988L13.544 12.6333L12.4869 11.576C12.4869 11.576 11.4234 12.6394 11.4212 12.6416C11.2471 12.8157 10.939 12.8221 10.7584 12.6416C10.5753 12.4585 10.5753 12.1617 10.7584 11.9788L11.824 10.9131L10.7667 9.85574C10.7667 9.85574 9.70173 10.9207 9.70099 10.9214C9.52009 11.1026 9.21906 11.1023 9.03815 10.9214C8.85529 10.7383 8.85529 10.4417 9.03815 10.2586L10.1038 9.1929L9.0467 8.13577C9.0467 8.13577 7.98322 9.19925 7.98103 9.2012C7.80744 9.37503 7.49812 9.38113 7.31819 9.2012C7.13508 9.01834 7.13508 8.72147 7.31819 8.53836L8.38386 7.47293L7.32649 6.41556C7.32649 6.41556 6.26179 7.4805 6.26081 7.48123C6.08503 7.65726 5.78059 7.66385 5.59822 7.48123C5.41511 7.29813 5.41511 7.00149 5.59822 6.81839L6.66364 5.75272L5.60652 4.69559C5.60652 4.69559 4.54182 5.76028 4.54084 5.76126C4.36555 5.93655 4.05989 5.94315 3.878 5.76126C3.6949 5.57816 3.6949 5.28128 3.878 5.09842L4.94368 4.03274L3.8863 2.97537C3.8863 2.97537 2.82112 4.0408 2.82088 4.04105C2.64436 4.21756 2.34114 4.2244 2.15804 4.04105C1.97493 3.85794 1.97493 3.56131 2.15804 3.3782L3.22346 2.31253L2.04207 1.13138C1.75862 0.847686 1.43098 0.952423 1.33723 0.991241C1.24348 1.03006 0.938065 1.18777 0.938065 1.58865V7.97171C0.938065 8.2305 0.728106 8.44046 0.469316 8.44046C0.210527 8.44046 0.000566483 8.2305 0.000566483 7.97171V1.58841C7.82013e-05 0.935333 0.374834 0.374542 0.978104 0.124542Z" fill="black"/>
<path d="M0.468775 9.37695C0.727564 9.37695 0.937525 9.58691 0.937525 9.8457V30.4153C0.937525 30.772 1.22756 31.0623 1.58425 31.0623H22.9082C23.167 31.0623 23.377 31.2722 23.377 31.531C23.377 31.7898 23.167 31.9998 22.9082 31.9998H1.58425C0.710718 31.9998 2.47955e-05 31.2891 2.47955e-05 30.4153V9.8457C2.47955e-05 9.58691 0.209742 9.37695 0.468775 9.37695Z" fill="black"/>
<path d="M21.6461 27.7083H6.31311C6.05432 27.7083 5.84435 27.4983 5.84435 27.2395V11.9068C5.84435 11.7171 5.95861 11.5462 6.13366 11.4737C6.30871 11.4012 6.51037 11.4412 6.6444 11.5752L21.9774 26.9082C22.1114 27.0423 22.1517 27.2437 22.079 27.419C22.0064 27.594 21.8355 27.7083 21.6461 27.7083ZM6.78185 13.0384V26.7708H20.5145L6.78185 13.0384Z" fill="black"/>
</g>
<defs>
<clipPath id="clip0_48_9592">
<rect width="32" height="32" fill="white" transform="matrix(-1 0 0 1 32 0)"/>
</clipPath>
</defs>
</svg>
