<svg width="32" height="32" viewBox="0 0 32 32" fill="none" xmlns="http://www.w3.org/2000/svg">
<path d="M25.2275 20.3848H20.1016V18.8955H20.2383C20.4972 18.8955 20.7071 18.6857 20.7071 18.4268C20.7071 18.1678 20.4972 17.958 20.2383 17.958H20.1016V16.4688H20.2383C20.4972 16.4688 20.7071 16.2589 20.7071 16C20.7071 15.7411 20.4972 15.5312 20.2383 15.5312H20.1016V14.042H20.2383C20.4972 14.042 20.7071 13.8322 20.7071 13.5732C20.7071 13.3143 20.4972 13.1045 20.2383 13.1045H20.1016V11.6152H20.2383C20.4972 11.6152 20.7071 11.4054 20.7071 11.1465C20.7071 10.8876 20.4972 10.6777 20.2383 10.6777H20.1016V9.1885H20.2383C20.4972 9.1885 20.7071 8.97869 20.7071 8.71975C20.7071 8.46081 20.4972 8.251 20.2383 8.251H20.1016V6.76175H20.2383C20.4972 6.76175 20.7071 6.55194 20.7071 6.293C20.7071 6.03406 20.4972 5.82425 20.2383 5.82425H20.1016V4.75219C20.1016 4.30469 19.9297 3.89662 19.6484 3.59044L20.808 2.86425C21.1239 2.66637 21.3125 2.32556 21.3125 1.95256V1.07544C21.3125 0.482438 20.8306 0 20.2383 0H7.18031C6.92144 0 6.71156 0.209812 6.71156 0.46875C6.71156 0.727688 6.92144 0.9375 7.18031 0.9375H20.2383C20.3136 0.9375 20.375 0.999375 20.375 1.07544V1.95256C20.375 2.00062 20.3508 2.04444 20.3104 2.06975L18.7189 3.06638C18.6101 3.04475 18.4977 3.03344 18.3828 3.03344H3.92969C3.81469 3.03344 3.70231 3.04481 3.59363 3.06644L2.00213 2.06981C1.96169 2.04444 1.9375 2.00062 1.9375 1.95256V1.07544C1.9375 0.999375 1.99881 0.9375 2.07425 0.9375H5.32363C5.5825 0.9375 5.79238 0.727688 5.79238 0.46875C5.79238 0.209812 5.5825 0 5.32356 0H2.07419C1.48188 0 1 0.482438 1 1.07544V1.95256C1 2.32556 1.18863 2.66637 1.5045 2.86431L2.66406 3.59044C2.38281 3.89656 2.21094 4.30469 2.21094 4.75219V5.82419H2.07419C1.81531 5.82419 1.60544 6.034 1.60544 6.29294C1.60544 6.55187 1.81531 6.76169 2.07419 6.76169H2.21094V8.25094H2.07419C1.81531 8.25094 1.60544 8.46075 1.60544 8.71969C1.60544 8.97862 1.81531 9.18844 2.07419 9.18844H2.21094V10.6777H2.07419C1.81531 10.6777 1.60544 10.8875 1.60544 11.1464C1.60544 11.4054 1.81531 11.6152 2.07419 11.6152H2.21094V13.1044H2.07419C1.81531 13.1044 1.60544 13.3143 1.60544 13.5732C1.60544 13.8321 1.81531 14.0419 2.07419 14.0419H2.21094V15.5312H2.07419C1.81531 15.5312 1.60544 15.7411 1.60544 16C1.60544 16.2589 1.81531 16.4688 2.07419 16.4688H2.21094V17.958H2.07419C1.81531 17.958 1.60544 18.1678 1.60544 18.4268C1.60544 18.6857 1.81531 18.8955 2.07419 18.8955H2.21094V20.3848H2.07419C1.81531 20.3848 1.60544 20.5946 1.60544 20.8535C1.60544 21.1124 1.81531 21.3223 2.07419 21.3223H2.21094V22.8115H2.07419C1.81531 22.8115 1.60544 23.0213 1.60544 23.2803C1.60544 23.5392 1.81531 23.749 2.07419 23.749H2.21094V25.2383H2.07419C1.81531 25.2383 1.60544 25.4481 1.60544 25.707C1.60544 25.9659 1.81531 26.1758 2.07419 26.1758H2.21094V27.1264C2.21094 27.6117 2.41306 28.0506 2.73756 28.3634L1.5045 29.1357C1.18863 29.3336 1 29.6744 1 30.0474V30.9246C1 31.5176 1.48188 32 2.07425 32H15.6519C15.9107 32 16.1206 31.7902 16.1206 31.5312C16.1206 31.2723 15.9107 31.0625 15.6519 31.0625H2.07425C1.99887 31.0625 1.9375 31.0006 1.9375 30.9246V30.0474C1.9375 29.9994 1.96169 29.9556 2.00213 29.9303L3.74956 28.8359C3.80875 28.8421 3.86888 28.8452 3.92963 28.8452H18.3827C18.4436 28.8452 18.5037 28.842 18.5629 28.8358L20.3102 29.9302C20.3507 29.9556 20.3749 29.9994 20.3749 30.0474V30.9246C20.3749 31.0006 20.3136 31.0625 20.2382 31.0625H17.4379C17.1791 31.0625 16.9692 31.2723 16.9692 31.5312C16.9692 31.7902 17.1791 32 17.4379 32H20.2382C20.8305 32 21.3124 31.5176 21.3124 30.9246V30.0474C21.3124 29.6744 21.1238 29.3336 20.8079 29.1357L19.5749 28.3635C19.8994 28.0507 20.1015 27.6117 20.1015 27.1265V26.1758H20.2383C20.4971 26.1758 20.707 25.966 20.707 25.7071C20.707 25.4481 20.4971 25.2383 20.2383 25.2383H20.1015V23.7491H20.2383C20.4971 23.7491 20.707 23.5392 20.707 23.2803C20.707 23.0214 20.4971 22.8116 20.2383 22.8116H20.1015V21.3223H25.2274C25.4863 21.3223 25.6962 21.1125 25.6962 20.8536C25.6962 20.5946 25.4864 20.3848 25.2275 20.3848ZM19.1641 27.1264C19.1641 27.5573 18.8136 27.9077 18.3828 27.9077H3.92969C3.49887 27.9077 3.14844 27.5573 3.14844 27.1264V26.1758H19.1641V27.1264ZM19.1641 25.2383H3.14844V23.7491H19.1641V25.2383ZM19.1641 22.8115H3.14844V21.3223H19.1641V22.8115ZM19.1641 20.3848H3.14844V18.8955H19.1641V20.3848ZM19.1641 17.958H3.14844V16.4688H19.1641V17.958ZM19.1641 15.5312H3.14844V14.042H19.1641V15.5312ZM19.1641 13.1045H3.14844V11.6152H19.1641V13.1045ZM19.1641 10.6777H3.14844V9.1885H19.1641V10.6777ZM19.1641 8.251H3.14844V6.76175H19.1641V8.251ZM19.1641 5.82425H3.14844V4.75219C3.14844 4.32138 3.49887 3.97094 3.92969 3.97094H18.3828C18.8136 3.97094 19.1641 4.32138 19.1641 4.75219V5.82425Z" fill="black"/>
<path d="M28.7149 15.5514L25.6875 15.5513C24.9444 15.5513 24.3398 14.9451 24.3398 14.1999V13.0068C24.3398 12.2617 24.9444 11.6555 25.6875 11.6555H28.7149C29.975 11.6555 31.0001 10.6288 31.0001 9.3667C31.0001 9.10776 30.7902 8.89795 30.5313 8.89795C30.2725 8.89795 30.0626 9.10776 30.0626 9.3667C30.0626 10.1118 29.458 10.718 28.7149 10.718H25.6875C24.4275 10.718 23.4023 11.7448 23.4023 13.0068V14.1999C23.4023 15.462 24.4275 16.4888 25.6875 16.4888L28.7148 16.4889C29.458 16.4889 30.0625 17.0951 30.0625 17.8402V19.0334C30.0625 19.7785 29.458 20.3847 28.7148 20.3847H26.9741C26.7152 20.3847 26.5053 20.5945 26.5053 20.8534C26.5053 21.1124 26.7152 21.3222 26.9741 21.3222H28.7148C29.9749 21.3222 31 20.2955 31 19.0334V17.8402C31 16.5781 29.9749 15.5514 28.7149 15.5514Z" fill="black"/>
</svg>
